<svg xmlns="http://www.w3.org/2000/svg" viewBox="0 0 64 64" width="64px" height="64px"><radialGradient id="NH9cX07PQZP5IJ3y4kLtEa" cx="33.298" cy="28.489" r="74.608" gradientTransform="matrix(1 0 0 -1 0 66)" gradientUnits="userSpaceOnUse"><stop offset="0" stop-color="#afeeff"/><stop offset=".193" stop-color="#bbf1ff"/><stop offset=".703" stop-color="#d7f8ff"/><stop offset="1" stop-color="#e1faff"/></radialGradient><path fill="url(#NH9cX07PQZP5IJ3y4kLtEa)" d="M57,18c0,1.1,0.9,2,2,2h1.5c1.6,0,2.85,1.52,2.41,3.18c-0.3,1.1-1.36,1.82-2.5,1.82H47	c-1.1,0-2,0.9-2,2s-0.5,10-0.5,10c-0.83,0-1.5,0.67-1.5,1.5S41.4,45,41.4,45l2.6,1h15c1.66,0,3,1.34,3,3s-1.34,3-3,3h-2.5	c-1.38,0-2.5,1.12-2.5,2.5s1.12,2.5,2.5,2.5H60c1.66,0,3,1.34,3,3s-1.34,3-3,3H6c-1.66,0-3-1.34-3-3s1.34-3,3-3h1.5	c1.38,0,2.5-1.12,2.5-2.5S8.88,52,7.5,52H4c-1.66,0-3-1.34-3-3s1.34-3,3-3h3c0.83,0,1.58-0.34,2.12-0.88C9.66,44.58,10,43.83,10,43	c0-1.66-1.34-3-3-3H4.5C3.12,40,2,38.88,2,37.5S3.12,35,4.5,35h12.01c-0.44-0.58-0.64-1.36-0.42-2.18c0.3-1.1,1.36-0.82,2.5-0.82	L26,33V17.82C25.68,17.93,25.35,18,25,18H3c-1.65,0-3-1.35-3-3s1.35-3,3-3h7.5c0.69,0,1.32-0.28,1.77-0.73	C12.72,10.82,13,10.19,13,9.5C13,8.12,11.88,7,10.5,7h-3C5.9,7,4.64,5.48,5.09,3.82C5.39,2.72,6.45,2,7.59,2H55.5	c1.6,0,2.85,1.52,2.41,3.18C57.61,6.28,56.55,7,55.41,7H51.5C50.67,7,50,7.67,50,8.5s0.67,1.5,1.5,1.5h9.37	c1.45,0,2.79,0.97,3.07,2.4C64.32,14.31,62.85,16,61,16h-2C57.9,16,57,16.9,57,18z"/><linearGradient id="NH9cX07PQZP5IJ3y4kLtEb" x1="32" x2="32" y1="18.989" y2="123.222" gradientTransform="matrix(1 0 0 -1 0 66)" gradientUnits="userSpaceOnUse"><stop offset="0" stop-color="#ff634d"/><stop offset=".204" stop-color="#fe6464"/><stop offset=".521" stop-color="#fc6581"/><stop offset=".794" stop-color="#fa6694"/><stop offset=".989" stop-color="#fa669a"/><stop offset="1" stop-color="#fa669a"/></linearGradient><path fill="url(#NH9cX07PQZP5IJ3y4kLtEb)" d="M53,25v5.5c0,0.83-0.67,1.5-1.5,1.5H50v6.99c0,4.54-1.54,8.94-4.38,12.49l-0.11,0.14	l-1.78,2.22c-1.3,1.42-2.83,2.58-4.51,3.42c-0.26,0.14-0.54,0.27-0.81,0.39C36.41,58.53,34.23,59,32,59c-2.54,0-5.01-0.6-7.22-1.74	c-1.68-0.84-3.21-2-4.51-3.42l-1.78-2.22l-0.11-0.14C15.54,47.93,14,43.53,14,38.99V32h-1.5c-0.83,0-1.5-0.67-1.5-1.5V25	c0-1.8,0.61-2.79,1.28-3.33c0.99-0.81,1.71-1.89,1.92-3.15C15.39,11.41,21.56,6,29,6h6c7.44,0,13.61,5.41,14.8,12.52	c0.21,1.26,0.93,2.34,1.92,3.15C52.39,22.21,53,23.2,53,25z"/><linearGradient id="NH9cX07PQZP5IJ3y4kLtEc" x1="32" x2="32" y1="-5.642" y2="24.514" gradientTransform="matrix(1 0 0 -1 0 66)" gradientUnits="userSpaceOnUse"><stop offset="0" stop-color="#feaa53"/><stop offset=".612" stop-color="#ffcd49"/><stop offset="1" stop-color="#ffde44"/></linearGradient><path fill="url(#NH9cX07PQZP5IJ3y4kLtEc)" d="M42.76,50.09l2.75,1.53l-1.78,2.22c-1.3,1.42-2.83,2.58-4.51,3.42	c-0.56-0.37-1.21-0.69-1.89-0.96c-3.41-1.35-7.25-1.35-10.66,0c-0.68,0.27-1.33,0.59-1.89,0.96c-1.68-0.84-3.21-2-4.51-3.42	l-1.78-2.22l2.75-1.53l3.11,2.67C24.53,52.92,24.76,53,25,53c0.04,0,0.07,0,0.11-0.01c0.27-0.03,0.52-0.17,0.69-0.39l2.7-3.6h7	l2.7,3.6c0.17,0.22,0.42,0.36,0.69,0.39C38.93,53,38.96,53,39,53c0.24,0,0.47-0.08,0.65-0.24L42.76,50.09z"/><linearGradient id="NH9cX07PQZP5IJ3y4kLtEd" x1="23.168" x2="23.168" y1="35.864" y2="23.351" gradientTransform="matrix(1 0 0 -1 0 66)" gradientUnits="userSpaceOnUse"><stop offset="0" stop-color="#b0eef9"/><stop offset=".392" stop-color="#adeaf8"/><stop offset=".94" stop-color="#a7e0f3"/><stop offset="1" stop-color="#a5dff3"/></linearGradient><path fill="url(#NH9cX07PQZP5IJ3y4kLtEd)" d="M27.719,34h-9.101c-0.743,0-1.227-0.782-0.894-1.447l1-2C18.893,30.214,19.239,30,19.618,30	h7.601c0.459,0,0.859,0.312,0.97,0.757l0.5,2C28.847,33.389,28.37,34,27.719,34z"/><linearGradient id="NH9cX07PQZP5IJ3y4kLtEe" x1="40.832" x2="40.832" y1="35.864" y2="23.351" gradientTransform="matrix(1 0 0 -1 0 66)" gradientUnits="userSpaceOnUse"><stop offset="0" stop-color="#b0eef9"/><stop offset=".392" stop-color="#adeaf8"/><stop offset=".94" stop-color="#a7e0f3"/><stop offset="1" stop-color="#a5dff3"/></linearGradient><path fill="url(#NH9cX07PQZP5IJ3y4kLtEe)" d="M45.382,34h-9.101c-0.651,0-1.128-0.611-0.97-1.243l0.5-2C35.922,30.312,36.322,30,36.781,30	h7.601c0.379,0,0.725,0.214,0.894,0.553l1,2C46.609,33.218,46.125,34,45.382,34z"/><linearGradient id="NH9cX07PQZP5IJ3y4kLtEf" x1="32" x2="32" y1="11.944" y2="66.492" gradientTransform="matrix(1 0 0 -1 0 66)" gradientUnits="userSpaceOnUse"><stop offset="0" stop-color="#feaa53"/><stop offset=".612" stop-color="#ffcd49"/><stop offset="1" stop-color="#ffde44"/></linearGradient><path fill="url(#NH9cX07PQZP5IJ3y4kLtEf)" d="M19.139,28.041C19.296,28.016,19.455,28,19.618,28H27h0.219h9.562H40h4.382	c0.163,0,0.322,0.016,0.479,0.041l3.316-6.631c-0.139-4.618-3.914-8.31-8.557-8.31c-1.12,0-2.1,0.76-2.37,1.84l-1.7,6.81	c-0.41,1.63-1.87,2.77-3.55,2.77c-0.84,0-1.62-0.28-2.25-0.77s-1.09-1.19-1.3-2l-1.7-6.81c-0.27-1.08-1.25-1.84-2.37-1.84	c-2.36,0-4.51,0.96-6.06,2.51c-1.493,1.493-2.429,3.535-2.497,5.8L19.139,28.041z"/><linearGradient id="NH9cX07PQZP5IJ3y4kLtEg" x1="32" x2="32" y1="-29.606" y2="64.868" gradientTransform="matrix(1 0 0 -1 0 66)" gradientUnits="userSpaceOnUse"><stop offset="0" stop-color="#feaa53"/><stop offset=".612" stop-color="#ffcd49"/><stop offset="1" stop-color="#ffde44"/></linearGradient><path fill="url(#NH9cX07PQZP5IJ3y4kLtEg)" d="M48.772,24.692L46.618,29c0.175,0.196,0.327,0.416,0.449,0.66l0.999,1.998	c0.468,0.938,0.419,2.029-0.132,2.92S46.429,36,45.382,36h-9.101c-0.93,0-1.792-0.42-2.364-1.153	c-0.572-0.732-0.772-1.67-0.547-2.572l0.5-2.002c0.024-0.095,0.061-0.182,0.093-0.272h-3.926c0.032,0.09,0.069,0.178,0.093,0.272	l0.5,2c0.226,0.902,0.026,1.841-0.546,2.573C29.511,35.579,28.65,36,27.719,36h-9.101c-1.047,0-2.001-0.532-2.552-1.423	c-0.55-0.891-0.6-1.982-0.131-2.919l1-2c0.121-0.242,0.274-0.461,0.448-0.657l-2.164-4.328C15,25,13.85,26.93,13.85,26.93	C13,28,12,30.24,12,32.13v0.04c0,1.91,0.66,3.76,1.87,5.23l0.73,0.89c0.77,0.93,1.91,1.47,3.11,1.47v0.5c0,1.46,0.49,2.89,1.39,4.06	l2.92,3.81l2.82,2.42l2.36-3.15c0.19-0.25,0.49-0.4,0.8-0.4h8c0.31,0,0.61,0.15,0.8,0.4l2.36,3.15l2.82-2.42l2.92-3.81	c0.9-1.17,1.39-2.6,1.39-4.06v-0.5c1.2,0,2.34-0.54,3.11-1.47l0.73-0.89c1.21-1.47,1.87-3.32,1.87-5.23c0-1.87-0.64-3.68-1.8-5.14	C50.2,27.03,49,25,48.772,24.692z"/></svg>